General:

Complete name                    : You Again - Official Trailer [HD] ~ cHowZ.avi
Format                           : AVI
Format/Info                      : Audio Video Interleave
File size                        : 30.4 MiB
Duration                         : 2mn 30s
Overall bit rate                 : 1 697 Kbps

IMDB link: http://www.imdb.com/title/tt1414382/

Video:

ID                               : 0
Format                           : MPEG-4 Visual
Format profile                   : Advanced Simple@L5
Codec ID                         : XVID
Codec ID/Hint                    : XviD
Duration                         : 2mn 30s
Bit rate                         : 1 495 Kbps
Width                            : 1 280 pixels
Height                           : 544 pixels
Display aspect ratio             : 2.35:1
Frame rate                       : 24.000 fps
Resolution                       : 8 bits
Colorimetry                      : 4:2:0
Scan type                        : Progressive
Stream size                      : 26.8 MiB (88%)
Writing library                  : XviD 1.1.2 (UTC 2006-11-01)

Audio:

ID                               : 1
Format                           : MPEG Audio
Format version                   : Version 1
Format profile                   : Layer 3
Codec ID                         : 55
Codec ID/Hint                    : MP3
Duration                         : 2mn 30s
Bit rate mode                    : Constant
Bit rate                         : 192 Kbps
Channel(s)                       : 2 channels
Sampling rate                    : 44.1 KHz
Stream size                      : 3.44 MiB (11%)
Alignment                        : Split accross interleaves
Interleave, duration             : 42 ms (1.00 video frame)
Writing library                  : LAMELAME_MAJOR_VERSI

